<svg width="335" height="335" viewBox="0 0 335 335" fill="none" xmlns="http://www.w3.org/2000/svg">
<path d="M167.5 335C260.008 335 335 260.008 335 167.5C335 74.9923 260.008 0 167.5 0C74.9923 0 0 74.9923 0 167.5C0 260.008 74.9923 335 167.5 335Z" fill="#12151E" fill-opacity="0.5"/>
<path d="M333.804 167.5C333.804 259.347 259.347 333.804 167.5 333.804C75.6531 333.804 1.19643 259.347 1.19643 167.5C1.19643 75.6531 75.6531 1.19643 167.5 1.19643C259.347 1.19643 333.804 75.6531 333.804 167.5Z" stroke="#272A38" stroke-opacity="0.5" stroke-width="2.39286" stroke-miterlimit="10"/>
<path fill-rule="evenodd" clip-rule="evenodd" d="M42.2512 71.2886C57.266 51.7712 76.7405 35.8627 99.15 25.0878L102.643 28.2316C122.337 19.0112 144.317 13.86 167.5 13.86C190.683 13.86 212.663 19.0112 232.357 28.2316L235.85 25.0878C258.26 35.8627 277.734 51.7712 292.749 71.2886H304.629C288.949 48.981 267.963 30.6728 243.506 18.1974C241.375 17.1103 239.217 16.0675 237.035 15.0702C215.855 5.39285 192.307 0 167.5 0C142.693 0 119.145 5.39285 97.9654 15.0702C95.7827 16.0675 93.6251 17.1103 91.494 18.1974C67.0367 30.6728 46.0513 48.981 30.3711 71.2886H42.2512Z" fill="#272A38" fill-opacity="0.5"/>
<path fill-rule="evenodd" clip-rule="evenodd" d="M292.749 263.711C277.734 283.229 258.259 299.137 235.85 309.912L232.357 306.768C212.663 315.989 190.683 321.14 167.5 321.14C144.317 321.14 122.337 315.989 102.643 306.768L99.15 309.912C76.7405 299.137 57.2659 283.229 42.2511 263.711L30.371 263.711C46.0512 286.019 67.0367 304.327 91.4939 316.803C93.6251 317.89 95.7826 318.933 97.9653 319.93C119.145 329.607 142.693 335 167.5 335C192.307 335 215.855 329.607 237.035 319.93C239.217 318.933 241.375 317.89 243.506 316.803C267.963 304.327 288.949 286.019 304.629 263.711L292.749 263.711Z" fill="#272A38" fill-opacity="0.5"/>
<path d="M207.067 289.273C194.288 293.425 180.936 295.54 167.5 295.54" stroke="#1C1F2B" stroke-width="19.1429"/>
<path d="M242.76 271.086C231.89 278.984 219.845 285.121 207.066 289.273" stroke="#1C1F2B" stroke-width="19.1429"/>
<path d="M271.086 242.76C263.189 253.63 253.63 263.189 242.76 271.087" stroke="#1C1F2B" stroke-width="19.1429"/>
<path d="M289.273 207.066C285.121 219.845 278.984 231.89 271.086 242.76" stroke="#1C1F2B" stroke-width="19.1429"/>
<path d="M295.54 167.5C295.54 180.936 293.425 194.288 289.273 207.067" stroke="#1C1F2B" stroke-width="19.1429"/>
<path d="M289.273 127.934C293.425 140.712 295.54 154.064 295.54 167.5" stroke="#1C1F2B" stroke-width="19.1429"/>
<path d="M271.086 92.2399C278.984 103.11 285.121 115.155 289.273 127.933" stroke="#1C1F2B" stroke-width="19.1429"/>
<path d="M242.76 63.9135C253.63 71.811 263.189 81.3701 271.086 92.24" stroke="#1C1F2B" stroke-width="19.1429"/>
<path d="M207.067 45.7265C219.845 49.8785 231.89 56.0158 242.76 63.9133" stroke="#1C1F2B" stroke-width="19.1429"/>
<path d="M167.5 39.4598C180.936 39.4598 194.288 41.5746 207.067 45.7266" stroke="#1C1F2B" stroke-width="19.1429"/>
<path d="M127.933 45.7265C140.712 41.5746 154.064 39.4598 167.5 39.4598" stroke="#1C1F2B" stroke-width="19.1429"/>
<path d="M92.2399 63.9135C103.11 56.0161 115.155 49.8787 127.933 45.7268" stroke="#1C1F2B" stroke-width="19.1429"/>
<path d="M63.9135 92.2399C71.811 81.3699 81.3701 71.8108 92.24 63.9133" stroke="#1C1F2B" stroke-width="19.1429"/>
<path d="M45.7268 127.934C49.8787 115.155 56.016 103.11 63.9135 92.2401" stroke="#1C1F2B" stroke-width="19.1429"/>
<path d="M39.4601 167.5C39.4601 154.064 41.5749 140.712 45.7268 127.933" stroke="#1C1F2B" stroke-width="19.1429"/>
<path d="M45.7268 207.066C41.5748 194.288 39.46 180.936 39.46 167.5" stroke="#1C1F2B" stroke-width="19.1429"/>
<path d="M63.9135 242.76C56.0161 231.89 49.8787 219.845 45.7268 207.067" stroke="#1C1F2B" stroke-width="19.1429"/>
<path d="M92.2401 271.086C81.3702 263.189 71.811 253.63 63.9136 242.76" stroke="#1C1F2B" stroke-width="19.1429"/>
<path d="M127.933 289.273C115.155 285.122 103.11 278.984 92.2399 271.087" stroke="#1C1F2B" stroke-width="19.1429"/>
<path d="M167.5 295.54C154.064 295.54 140.712 293.425 127.933 289.273" stroke="#1C1F2B" stroke-width="19.1429"/>
<path d="M127.933 45.7265C140.712 41.5746 154.064 39.4598 167.5 39.4598" stroke="#F7931E" stroke-opacity="0.2" stroke-width="7.17857"/>
<path d="M92.2399 63.9135C103.11 56.0161 115.155 49.8787 127.933 45.7268" stroke="#F7931E" stroke-opacity="0.2" stroke-width="7.17857"/>
<path d="M63.9135 92.2399C71.3107 82.0584 80.1658 73.027 90.1904 65.4339C90.4757 65.2178 90.762 65.0028 91.0493 64.789C91.4444 64.4949 91.8415 64.2029 92.24 63.9133" stroke="white" stroke-width="7.17857" stroke-linecap="round"/>
<path d="M45.7268 127.934C49.6157 115.965 55.2465 104.639 62.4341 94.3196C62.6387 94.0259 62.8445 93.733 63.0516 93.4409C63.3366 93.039 63.624 92.6386 63.9135 92.2401" stroke="white" stroke-width="7.17857" stroke-linecap="round"/>
<path d="M39.4601 167.5C39.4601 154.915 41.3155 142.404 44.9624 130.368C45.0662 130.026 45.1715 129.684 45.2782 129.342C45.425 128.872 45.5746 128.402 45.7268 127.933" stroke="white" stroke-width="7.17857" stroke-linecap="round"/>
<path d="M45.7268 207.066C41.8378 195.097 39.7361 182.625 39.4855 170.052C39.4783 169.694 39.4727 169.336 39.4686 168.978C39.4629 168.485 39.46 167.992 39.46 167.5" stroke="white" stroke-width="7.17857" stroke-linecap="round"/>
<path d="M63.9135 242.76C56.5163 232.579 50.6633 221.366 46.5396 209.486C46.4222 209.148 46.3062 208.809 46.1916 208.47C46.034 208.003 45.879 207.535 45.7268 207.067" stroke="white" stroke-width="7.17857" stroke-linecap="round"/>
<path d="M92.2401 271.086C82.0587 263.689 73.0273 254.834 65.4342 244.81C65.218 244.524 65.003 244.238 64.7892 243.951C64.4951 243.556 64.2031 243.158 63.9136 242.76" stroke="white" stroke-width="7.17857" stroke-linecap="round"/>
<path d="M127.933 289.273C115.964 285.385 104.639 279.754 94.3194 272.566C94.0257 272.362 93.7327 272.156 93.4406 271.949C93.0388 271.664 92.6384 271.376 92.2399 271.087" stroke="white" stroke-width="7.17857" stroke-linecap="round"/>
<path d="M167.5 295.54C154.915 295.54 142.404 293.685 130.368 290.038C130.026 289.934 129.684 289.829 129.342 289.722C128.872 289.575 128.402 289.426 127.933 289.273" stroke="white" stroke-width="7.17857" stroke-linecap="round"/>
<path d="M207.067 289.273C195.098 293.162 182.625 295.264 170.052 295.515C169.694 295.522 169.336 295.528 168.978 295.532C168.486 295.537 167.993 295.54 167.5 295.54" stroke="white" stroke-width="7.17857" stroke-linecap="round"/>
<path d="M242.76 271.086C232.578 278.484 221.366 284.337 209.486 288.46C209.147 288.578 208.809 288.694 208.469 288.808C208.003 288.966 207.535 289.121 207.066 289.273" stroke="white" stroke-width="7.17857" stroke-linecap="round"/>
<path d="M271.086 242.76C263.689 252.942 254.834 261.973 244.81 269.566C244.524 269.782 244.238 269.997 243.951 270.211C243.556 270.505 243.158 270.797 242.76 271.087" stroke="white" stroke-width="7.17857" stroke-linecap="round"/>
<path d="M289.273 207.066C285.384 219.035 279.753 230.361 272.566 240.68C272.361 240.974 272.155 241.267 271.948 241.559C271.663 241.961 271.376 242.361 271.086 242.76" stroke="white" stroke-width="7.17857" stroke-linecap="round"/>
<path d="M295.54 167.5C295.54 180.085 293.685 192.596 290.038 204.632C289.934 204.974 289.829 205.316 289.722 205.658C289.575 206.128 289.425 206.598 289.273 207.067" stroke="white" stroke-width="7.17857" stroke-linecap="round"/>
<path d="M289.273 127.934C293.162 139.903 295.264 152.375 295.515 164.948C295.522 165.306 295.527 165.664 295.531 166.022C295.537 166.515 295.54 167.008 295.54 167.5" stroke="white" stroke-width="7.17857" stroke-linecap="round"/>
<path d="M271.086 92.2399C278.484 102.421 284.337 113.634 288.46 125.514C288.578 125.852 288.694 126.191 288.808 126.53C288.966 126.997 289.121 127.465 289.273 127.933" stroke="white" stroke-width="7.17857" stroke-linecap="round"/>
<path d="M242.76 63.9135C252.941 71.3107 261.973 80.1658 269.566 90.1904C269.782 90.4757 269.997 90.7621 270.211 91.0493C270.505 91.4444 270.797 91.8415 271.086 92.24" stroke="white" stroke-width="7.17857" stroke-linecap="round"/>
<path d="M207.067 45.7265C219.036 49.6155 230.361 55.2463 240.681 62.4338C240.974 62.6384 241.267 62.8443 241.559 63.0514C241.961 63.3363 242.362 63.6237 242.76 63.9133" stroke="white" stroke-width="7.17857" stroke-linecap="round"/>
<path d="M167.5 39.4598C180.085 39.4598 192.596 41.3152 204.632 44.9621C204.974 45.066 205.316 45.1712 205.658 45.2779C206.128 45.4247 206.598 45.5743 207.067 45.7266" stroke="white" stroke-width="7.17857" stroke-linecap="round"/>
<path d="M135.58 250.481H127.673V247.943H135.58V250.481ZM150.19 258.346H140.011V256.215H143.796V242.222H140.011V240.316C141.441 240.316 142.492 240.115 143.165 239.713C143.848 239.301 144.231 238.53 144.315 237.399H146.488V256.215H150.19V258.346ZM174.838 258.346H164.659V256.215H168.445V242.222H164.659V240.316C166.089 240.316 167.141 240.115 167.814 239.713C168.496 239.301 168.879 238.53 168.963 237.399H171.137V256.215H174.838V258.346ZM191.803 240.596L182.774 258.346H179.787L189.349 239.923H178.554V237.469H191.803V240.596ZM206.188 258.346H196.009V256.215H199.795V242.222H196.009V240.316C197.439 240.316 198.491 240.115 199.164 239.713C199.846 239.301 200.229 238.53 200.314 237.399H202.487V256.215H206.188V258.346Z" fill="#F7931E"/>
<path d="M166.757 73.1768H162.317V84.2998H160.12V73.1768H155.681V71.2489H166.757V73.1768ZM178.698 84.2998H176.501V78.4228H170.589V84.2998H168.393V71.2489H170.589V76.53H176.501V71.2489H178.698V84.2998Z" fill="#606580"/>
<path d="M121.909 122.749C121.909 123.614 121.746 124.377 121.419 125.039C121.092 125.701 120.652 126.247 120.098 126.675C119.444 127.189 118.743 127.555 117.995 127.773C117.248 127.984 116.282 128.089 115.098 128.089H110.109V110.692H114.724C115.962 110.692 116.889 110.734 117.505 110.82C118.128 110.898 118.724 111.089 119.292 111.393C119.915 111.728 120.371 112.168 120.659 112.713C120.948 113.25 121.092 113.885 121.092 114.617C121.092 115.435 120.874 116.167 120.437 116.814C120.009 117.46 119.413 117.967 118.65 118.333V118.426C119.686 118.707 120.488 119.221 121.057 119.969C121.625 120.709 121.909 121.635 121.909 122.749ZM118.685 114.945C118.685 114.524 118.615 114.162 118.474 113.858C118.334 113.546 118.108 113.301 117.797 113.122C117.423 112.912 117.006 112.783 116.547 112.736C116.087 112.69 115.452 112.666 114.642 112.666H112.422V117.76H115.051C115.775 117.76 116.309 117.725 116.652 117.655C116.994 117.577 117.349 117.421 117.715 117.188C118.065 116.962 118.315 116.666 118.463 116.3C118.611 115.934 118.685 115.482 118.685 114.945ZM119.503 122.843C119.503 122.189 119.409 121.651 119.222 121.23C119.035 120.802 118.657 120.44 118.089 120.144C117.723 119.949 117.322 119.824 116.885 119.77C116.457 119.715 115.846 119.688 115.051 119.688H112.422V126.114H114.303C115.316 126.114 116.114 126.068 116.698 125.974C117.283 125.881 117.797 125.682 118.241 125.378C118.677 125.074 118.996 124.732 119.199 124.35C119.401 123.961 119.503 123.458 119.503 122.843ZM133.734 124.046C133.734 124.677 133.605 125.25 133.348 125.764C133.099 126.278 132.756 126.695 132.32 127.014C131.806 127.403 131.257 127.68 130.672 127.844C130.088 128.007 129.337 128.089 128.417 128.089H124.048V115.038H126.244V120.12H128.476C129.457 120.12 130.217 120.171 130.754 120.272C131.299 120.374 131.841 120.623 132.378 121.02C132.83 121.355 133.169 121.783 133.395 122.305C133.621 122.827 133.734 123.408 133.734 124.046ZM131.467 124.081C131.467 123.684 131.397 123.337 131.257 123.041C131.124 122.738 130.902 122.492 130.591 122.305C130.263 122.111 129.89 121.994 129.469 121.955C129.056 121.916 128.46 121.896 127.681 121.896H126.244V126.336H127.635C128.414 126.336 129.017 126.305 129.446 126.243C129.874 126.173 130.244 126.044 130.556 125.857C130.875 125.655 131.105 125.417 131.245 125.145C131.393 124.864 131.467 124.51 131.467 124.081ZM137.449 128.089H135.252V115.038H137.449V128.089ZM151.587 121.219C151.587 123.392 151.065 125.125 150.021 126.418C148.985 127.703 147.672 128.346 146.083 128.346C145.437 128.346 144.864 128.272 144.366 128.124C143.867 127.976 143.357 127.746 142.835 127.435V132.903H140.639V115.038H142.835V116.405C143.381 115.914 143.984 115.505 144.646 115.178C145.316 114.843 146.044 114.676 146.831 114.676C148.327 114.676 149.491 115.268 150.325 116.452C151.166 117.636 151.587 119.225 151.587 121.219ZM149.32 121.464C149.32 119.976 149.082 118.824 148.607 118.006C148.132 117.18 147.361 116.767 146.294 116.767C145.671 116.767 145.067 116.907 144.483 117.188C143.906 117.46 143.357 117.815 142.835 118.251V125.647C143.412 125.927 143.902 126.118 144.307 126.219C144.72 126.321 145.192 126.371 145.721 126.371C146.858 126.371 147.743 125.955 148.373 125.121C149.004 124.288 149.32 123.069 149.32 121.464ZM161.156 124.876V121.254C160.634 121.301 159.972 121.367 159.169 121.452C158.375 121.53 157.732 121.643 157.242 121.791C156.657 121.97 156.174 122.247 155.793 122.621C155.411 122.987 155.22 123.501 155.22 124.163C155.22 124.911 155.431 125.476 155.851 125.857C156.272 126.239 156.887 126.43 157.697 126.43C158.39 126.43 159.017 126.282 159.578 125.986C160.139 125.682 160.665 125.312 161.156 124.876ZM161.156 126.698C160.976 126.831 160.735 127.018 160.431 127.259C160.135 127.493 159.847 127.68 159.567 127.82C159.177 128.023 158.799 128.178 158.433 128.287C158.075 128.397 157.569 128.451 156.914 128.451C156.377 128.451 155.867 128.35 155.384 128.147C154.901 127.945 154.476 127.66 154.11 127.294C153.76 126.936 153.479 126.496 153.269 125.974C153.059 125.444 152.954 124.887 152.954 124.303C152.954 123.4 153.144 122.632 153.526 122.002C153.908 121.363 154.511 120.857 155.337 120.483C156.069 120.148 156.934 119.918 157.931 119.793C158.928 119.661 160.003 119.564 161.156 119.501V119.081C161.156 118.567 161.078 118.154 160.922 117.842C160.766 117.523 160.548 117.277 160.268 117.106C159.987 116.927 159.645 116.81 159.239 116.756C158.834 116.693 158.418 116.662 157.989 116.662C157.483 116.662 156.887 116.74 156.202 116.896C155.516 117.044 154.831 117.262 154.145 117.55H154.017V115.318C154.422 115.202 155.002 115.073 155.758 114.933C156.513 114.793 157.261 114.723 158.001 114.723C158.897 114.723 159.652 114.793 160.268 114.933C160.883 115.073 161.436 115.326 161.927 115.692C162.402 116.051 162.756 116.514 162.99 117.083C163.224 117.651 163.341 118.345 163.341 119.162V128.089H161.156V126.698ZM175.69 116.966C176.197 117.48 176.59 118.134 176.87 118.929C177.151 119.715 177.291 120.631 177.291 121.674C177.291 122.679 177.131 123.61 176.812 124.467C176.493 125.316 176.06 126.033 175.515 126.617C174.954 127.224 174.331 127.684 173.646 127.995C172.968 128.299 172.228 128.451 171.426 128.451C170.608 128.451 169.856 128.311 169.171 128.03C168.493 127.742 167.913 127.302 167.43 126.71C166.83 125.97 166.378 125.043 166.075 123.929C165.779 122.816 165.631 121.437 165.631 119.793C165.631 119.209 165.654 118.617 165.701 118.017C165.755 117.41 165.868 116.685 166.039 115.844C166.195 115.096 166.406 114.403 166.67 113.764C166.935 113.118 167.282 112.573 167.71 112.129C168.263 111.552 168.984 111.093 169.872 110.75C170.768 110.407 171.952 110.17 173.424 110.037C173.946 109.991 174.502 109.948 175.094 109.909C175.694 109.862 176.15 109.827 176.461 109.804V111.825C176.056 111.848 175.624 111.879 175.165 111.918C174.705 111.95 174.179 111.988 173.587 112.035C172.801 112.098 171.979 112.238 171.122 112.456C170.265 112.666 169.619 112.997 169.182 113.449C168.855 113.784 168.594 114.263 168.4 114.886C168.205 115.509 168.069 116.202 167.991 116.966C168.567 116.553 169.182 116.206 169.837 115.926C170.499 115.638 171.212 115.494 171.975 115.494C172.684 115.494 173.357 115.614 173.996 115.856C174.635 116.09 175.2 116.46 175.69 116.966ZM175.059 121.803C175.059 120.416 174.748 119.353 174.125 118.613C173.502 117.873 172.614 117.503 171.461 117.503C170.83 117.503 170.218 117.608 169.626 117.819C169.034 118.029 168.478 118.309 167.956 118.66C167.94 118.855 167.924 119.088 167.909 119.361C167.893 119.626 167.886 119.867 167.886 120.085C167.886 121.441 167.995 122.543 168.213 123.392C168.431 124.241 168.735 124.907 169.124 125.39C169.475 125.826 169.845 126.13 170.234 126.301C170.623 126.465 171.048 126.547 171.508 126.547C172.629 126.547 173.502 126.122 174.125 125.273C174.748 124.424 175.059 123.267 175.059 121.803ZM190.33 121.569C190.33 123.766 189.801 125.464 188.741 126.663C187.682 127.855 186.272 128.451 184.512 128.451C182.697 128.451 181.267 127.836 180.224 126.605C179.188 125.367 178.67 123.688 178.67 121.569C178.67 119.388 179.203 117.694 180.27 116.487C181.345 115.279 182.759 114.676 184.512 114.676C186.272 114.676 187.682 115.279 188.741 116.487C189.801 117.686 190.33 119.38 190.33 121.569ZM188.064 121.569C188.064 119.879 187.756 118.625 187.141 117.807C186.525 116.981 185.649 116.569 184.512 116.569C183.367 116.569 182.483 116.981 181.859 117.807C181.244 118.625 180.936 119.879 180.936 121.569C180.936 123.205 181.244 124.447 181.859 125.296C182.483 126.138 183.367 126.558 184.512 126.558C185.641 126.558 186.514 126.145 187.129 125.32C187.752 124.486 188.064 123.236 188.064 121.569ZM202.119 116.966H197.679V128.089H195.483V116.966H191.043V115.038H202.119V116.966ZM214.259 128.089H211.525L207.05 122.072H205.952V128.089H203.755V115.038H205.952V120.716C206.52 120.709 207.003 120.592 207.4 120.366C207.805 120.132 208.148 119.684 208.429 119.022C208.514 118.827 208.608 118.602 208.709 118.345C208.818 118.087 208.904 117.862 208.966 117.667C209.309 116.709 209.784 116.031 210.391 115.634C210.999 115.237 211.79 115.038 212.763 115.038H213.359V116.931H212.857C212.241 116.931 211.778 117.059 211.466 117.316C211.163 117.566 210.906 118.025 210.695 118.695C210.477 119.373 210.22 119.902 209.924 120.284C209.628 120.658 209.301 120.946 208.943 121.149L214.259 128.089ZM222.963 124.876V121.254C222.441 121.301 221.779 121.367 220.977 121.452C220.183 121.53 219.54 121.643 219.049 121.791C218.465 121.97 217.982 122.247 217.6 122.621C217.219 122.987 217.028 123.501 217.028 124.163C217.028 124.911 217.238 125.476 217.659 125.857C218.079 126.239 218.695 126.43 219.505 126.43C220.198 126.43 220.825 126.282 221.386 125.986C221.947 125.682 222.473 125.312 222.963 124.876ZM222.963 126.698C222.784 126.831 222.543 127.018 222.239 127.259C221.943 127.493 221.655 127.68 221.374 127.82C220.985 128.023 220.607 128.178 220.241 128.287C219.883 128.397 219.376 128.451 218.722 128.451C218.185 128.451 217.674 128.35 217.191 128.147C216.709 127.945 216.284 127.66 215.918 127.294C215.567 126.936 215.287 126.496 215.077 125.974C214.866 125.444 214.761 124.887 214.761 124.303C214.761 123.4 214.952 122.632 215.334 122.002C215.715 121.363 216.319 120.857 217.145 120.483C217.877 120.148 218.742 119.918 219.739 119.793C220.736 119.661 221.81 119.564 222.963 119.501V119.081C222.963 118.567 222.885 118.154 222.73 117.842C222.574 117.523 222.356 117.277 222.075 117.106C221.795 116.927 221.452 116.81 221.047 116.756C220.642 116.693 220.225 116.662 219.797 116.662C219.291 116.662 218.695 116.74 218.009 116.896C217.324 117.044 216.638 117.262 215.953 117.55H215.824V115.318C216.229 115.202 216.81 115.073 217.565 114.933C218.321 114.793 219.069 114.723 219.809 114.723C220.704 114.723 221.46 114.793 222.075 114.933C222.691 115.073 223.244 115.326 223.734 115.692C224.21 116.051 224.564 116.514 224.798 117.083C225.031 117.651 225.148 118.345 225.148 119.162V128.089H222.963V126.698Z" fill="#D7E2F2"/>
<path d="M130.99 157.275C130.486 157.275 129.981 157.336 129.476 157.457C128.971 157.579 128.476 157.738 127.99 157.934C127.541 158.121 127.149 158.317 126.812 158.523C126.485 158.728 126.191 158.92 125.929 159.098H125.761V156.139C126.368 155.812 127.191 155.518 128.228 155.256C129.275 154.985 130.271 154.849 131.215 154.849C132.159 154.849 132.981 154.947 133.682 155.144C134.393 155.331 135.033 155.625 135.603 156.027C136.22 156.476 136.683 157.018 136.991 157.653C137.309 158.289 137.468 159.032 137.468 159.883C137.468 161.032 137.089 162.042 136.332 162.911C135.575 163.78 134.668 164.332 133.612 164.566V164.762C134.051 164.846 134.519 164.991 135.014 165.196C135.519 165.402 135.986 165.706 136.416 166.108C136.846 166.51 137.197 167.029 137.468 167.664C137.739 168.29 137.874 169.057 137.874 169.964C137.874 170.908 137.711 171.777 137.384 172.571C137.066 173.357 136.613 174.053 136.024 174.66C135.416 175.296 134.682 175.777 133.822 176.105C132.963 176.432 131.986 176.595 130.892 176.595C129.845 176.595 128.808 176.469 127.78 176.217C126.751 175.964 125.887 175.661 125.186 175.305V172.347H125.382C125.971 172.777 126.761 173.188 127.752 173.581C128.742 173.973 129.733 174.17 130.724 174.17C131.294 174.17 131.864 174.081 132.434 173.903C133.014 173.716 133.495 173.417 133.879 173.006C134.252 172.595 134.537 172.141 134.734 171.646C134.93 171.151 135.028 170.524 135.028 169.767C135.028 169.01 134.916 168.389 134.692 167.902C134.477 167.416 134.173 167.033 133.78 166.753C133.388 166.472 132.92 166.281 132.378 166.178C131.846 166.066 131.266 166.01 130.64 166.01H129.448V163.682H130.373C131.635 163.682 132.659 163.383 133.444 162.785C134.238 162.187 134.636 161.317 134.636 160.177C134.636 159.654 134.533 159.205 134.327 158.831C134.122 158.448 133.86 158.144 133.542 157.92C133.187 157.677 132.794 157.509 132.364 157.415C131.934 157.322 131.476 157.275 130.99 157.275ZM154.012 165.715C154.012 169.463 153.465 172.216 152.372 173.973C151.287 175.721 149.61 176.595 147.338 176.595C145.039 176.595 143.352 175.703 142.277 173.917C141.202 172.132 140.665 169.407 140.665 165.743C140.665 161.976 141.207 159.224 142.291 157.485C143.385 155.737 145.067 154.863 147.338 154.863C149.638 154.863 151.325 155.765 152.4 157.569C153.475 159.373 154.012 162.089 154.012 165.715ZM150.423 172.081C150.694 171.389 150.886 170.515 150.998 169.459C151.11 168.403 151.166 167.155 151.166 165.715C151.166 164.285 151.11 163.042 150.998 161.986C150.886 160.93 150.689 160.051 150.409 159.35C150.128 158.64 149.741 158.102 149.245 157.738C148.759 157.364 148.124 157.177 147.338 157.177C146.563 157.177 145.922 157.364 145.418 157.738C144.922 158.102 144.53 158.649 144.24 159.378C143.959 160.088 143.768 160.986 143.665 162.07C143.562 163.154 143.511 164.379 143.511 165.743C143.511 167.201 143.553 168.421 143.637 169.403C143.73 170.384 143.927 171.263 144.226 172.039C144.497 172.758 144.88 173.314 145.375 173.707C145.88 174.09 146.534 174.282 147.338 174.282C148.114 174.282 148.75 174.1 149.245 173.735C149.75 173.361 150.142 172.81 150.423 172.081ZM178.66 165.715C178.66 169.463 178.114 172.216 177.02 173.973C175.936 175.721 174.258 176.595 171.987 176.595C169.687 176.595 168 175.703 166.925 173.917C165.85 172.132 165.313 169.407 165.313 165.743C165.313 161.976 165.855 159.224 166.939 157.485C168.033 155.737 169.715 154.863 171.987 154.863C174.286 154.863 175.973 155.765 177.048 157.569C178.123 159.373 178.66 162.089 178.66 165.715ZM175.071 172.081C175.342 171.389 175.534 170.515 175.646 169.459C175.758 168.403 175.814 167.155 175.814 165.715C175.814 164.285 175.758 163.042 175.646 161.986C175.534 160.93 175.338 160.051 175.057 159.35C174.777 158.64 174.389 158.102 173.893 157.738C173.407 157.364 172.772 157.177 171.987 157.177C171.211 157.177 170.571 157.364 170.066 157.738C169.57 158.102 169.178 158.649 168.888 159.378C168.608 160.088 168.416 160.986 168.313 162.07C168.21 163.154 168.159 164.379 168.159 165.743C168.159 167.201 168.201 168.421 168.285 169.403C168.379 170.384 168.575 171.263 168.874 172.039C169.145 172.758 169.528 173.314 170.024 173.707C170.528 174.09 171.183 174.282 171.987 174.282C172.762 174.282 173.398 174.1 173.893 173.735C174.398 173.361 174.791 172.81 175.071 172.081ZM191.489 163.865C191.489 162.444 191.359 161.289 191.097 160.401C190.835 159.504 190.475 158.812 190.017 158.326C189.606 157.878 189.19 157.569 188.769 157.401C188.349 157.233 187.886 157.149 187.381 157.149C186.232 157.149 185.316 157.56 184.633 158.382C183.951 159.205 183.61 160.397 183.61 161.958C183.61 162.836 183.722 163.561 183.946 164.131C184.171 164.701 184.535 165.192 185.04 165.603C185.395 165.893 185.797 166.089 186.246 166.192C186.694 166.285 187.176 166.332 187.69 166.332C188.288 166.332 188.933 166.229 189.625 166.024C190.316 165.809 190.919 165.528 191.433 165.182C191.443 165.042 191.452 164.86 191.461 164.636C191.48 164.402 191.489 164.145 191.489 163.865ZM180.764 162.07C180.764 160.995 180.936 160.014 181.282 159.126C181.638 158.238 182.119 157.471 182.726 156.826C183.306 156.209 184.012 155.728 184.844 155.382C185.685 155.036 186.535 154.863 187.395 154.863C188.358 154.863 189.227 155.027 190.003 155.354C190.788 155.672 191.466 156.134 192.036 156.742C192.756 157.509 193.312 158.513 193.705 159.756C194.107 161 194.308 162.57 194.308 164.467C194.308 166.197 194.111 167.837 193.719 169.389C193.335 170.931 192.765 172.211 192.008 173.23C191.204 174.315 190.237 175.142 189.106 175.712C187.984 176.282 186.596 176.567 184.942 176.567C184.568 176.567 184.171 176.544 183.75 176.497C183.329 176.46 182.937 176.385 182.572 176.273V173.595H182.712C182.946 173.726 183.311 173.852 183.806 173.973C184.301 174.095 184.806 174.156 185.32 174.156C187.152 174.156 188.592 173.553 189.639 172.347C190.686 171.141 191.279 169.417 191.419 167.173C190.671 167.678 189.956 168.047 189.274 168.281C188.601 168.515 187.867 168.632 187.073 168.632C186.297 168.632 185.591 168.547 184.956 168.379C184.32 168.211 183.68 167.884 183.035 167.398C182.287 166.828 181.722 166.108 181.338 165.239C180.955 164.36 180.764 163.304 180.764 162.07ZM210.459 168.982H207.978V176.161H205.286V168.982H196.06V166.038L205.398 155.284H207.978V166.739H210.459V168.982ZM205.286 166.739V158.579L198.247 166.739H205.286Z" fill="#D7E2F2"/>
<path d="M130.99 195.56C130.486 195.56 129.981 195.621 129.476 195.743C128.971 195.864 128.476 196.023 127.99 196.219C127.541 196.406 127.149 196.603 126.812 196.808C126.485 197.014 126.191 197.206 125.929 197.383H125.761V194.425C126.368 194.098 127.191 193.803 128.228 193.542C129.275 193.27 130.271 193.135 131.215 193.135C132.159 193.135 132.981 193.233 133.682 193.429C134.393 193.616 135.033 193.911 135.603 194.313C136.22 194.761 136.683 195.303 136.991 195.939C137.309 196.575 137.468 197.318 137.468 198.168C137.468 199.318 137.089 200.327 136.332 201.197C135.575 202.066 134.668 202.618 133.612 202.851V203.048C134.051 203.132 134.519 203.277 135.014 203.482C135.519 203.688 135.986 203.992 136.416 204.393C136.846 204.795 137.197 205.314 137.468 205.95C137.739 206.576 137.874 207.342 137.874 208.249C137.874 209.193 137.711 210.063 137.384 210.857C137.066 211.642 136.613 212.339 136.024 212.946C135.416 213.582 134.682 214.063 133.822 214.39C132.963 214.717 131.986 214.881 130.892 214.881C129.845 214.881 128.808 214.755 127.78 214.502C126.751 214.25 125.887 213.946 125.186 213.591V210.633H125.382C125.971 211.063 126.761 211.474 127.752 211.866C128.742 212.259 129.733 212.455 130.724 212.455C131.294 212.455 131.864 212.367 132.434 212.189C133.014 212.002 133.495 211.703 133.879 211.292C134.252 210.88 134.537 210.427 134.734 209.932C134.93 209.436 135.028 208.81 135.028 208.053C135.028 207.296 134.916 206.674 134.692 206.188C134.477 205.702 134.173 205.319 133.78 205.038C133.388 204.758 132.92 204.566 132.378 204.464C131.846 204.351 131.266 204.295 130.64 204.295H129.448V201.968H130.373C131.635 201.968 132.659 201.669 133.444 201.071C134.238 200.472 134.636 199.603 134.636 198.463C134.636 197.939 134.533 197.491 134.327 197.117C134.122 196.734 133.86 196.43 133.542 196.205C133.187 195.962 132.794 195.794 132.364 195.701C131.934 195.607 131.476 195.56 130.99 195.56ZM152.848 214.446H142.669V212.315H146.455V198.323H142.669V196.416C144.1 196.416 145.151 196.215 145.824 195.813C146.506 195.402 146.89 194.63 146.974 193.499H149.147V212.315H152.848V214.446ZM178.562 214.446H165.677V211.516C166.603 210.637 167.477 209.796 168.299 208.992C169.122 208.188 169.926 207.352 170.711 206.483C172.3 204.735 173.384 203.337 173.964 202.29C174.543 201.234 174.833 200.145 174.833 199.024C174.833 198.444 174.739 197.935 174.552 197.495C174.375 197.056 174.127 196.691 173.809 196.402C173.482 196.121 173.104 195.911 172.674 195.771C172.244 195.631 171.772 195.56 171.258 195.56C170.762 195.56 170.257 195.626 169.743 195.757C169.239 195.878 168.753 196.033 168.285 196.219C167.893 196.378 167.514 196.57 167.15 196.794C166.785 197.019 166.491 197.21 166.266 197.369H166.112V194.397C166.692 194.107 167.495 193.827 168.524 193.556C169.561 193.275 170.543 193.135 171.468 193.135C173.412 193.135 174.936 193.654 176.039 194.691C177.142 195.719 177.693 197.117 177.693 198.883C177.693 199.697 177.595 200.449 177.399 201.141C177.212 201.832 176.95 202.473 176.613 203.062C176.268 203.669 175.852 204.272 175.366 204.87C174.88 205.468 174.365 206.057 173.823 206.637C172.945 207.59 171.963 208.581 170.879 209.609C169.804 210.637 168.944 211.451 168.299 212.049H178.562V214.446ZM194.56 207.674C194.56 208.749 194.382 209.74 194.027 210.647C193.672 211.553 193.195 212.31 192.597 212.918C191.971 213.563 191.27 214.054 190.494 214.39C189.718 214.717 188.863 214.881 187.928 214.881C186.984 214.881 186.124 214.722 185.348 214.404C184.582 214.086 183.904 213.614 183.315 212.988C182.596 212.231 182.03 211.222 181.619 209.96C181.217 208.688 181.016 207.128 181.016 205.277C181.016 203.463 181.203 201.828 181.577 200.37C181.951 198.902 182.525 197.626 183.301 196.542C184.058 195.486 185.035 194.663 186.232 194.074C187.428 193.476 188.811 193.177 190.382 193.177C190.849 193.177 191.284 193.2 191.686 193.247C192.088 193.294 192.443 193.369 192.751 193.471V196.149H192.625C192.373 196.009 192.008 195.883 191.531 195.771C191.055 195.649 190.545 195.589 190.003 195.589C188.265 195.589 186.858 196.177 185.783 197.355C184.717 198.524 184.086 200.262 183.89 202.571C184.554 202.103 185.236 201.744 185.937 201.491C186.638 201.239 187.405 201.113 188.237 201.113C189.05 201.113 189.76 201.197 190.368 201.365C190.985 201.524 191.625 201.851 192.289 202.346C193.055 202.926 193.625 203.66 193.999 204.548C194.373 205.436 194.56 206.478 194.56 207.674ZM191.714 207.786C191.714 206.927 191.602 206.207 191.377 205.627C191.153 205.048 190.788 204.552 190.284 204.141C189.919 203.842 189.503 203.646 189.036 203.552C188.578 203.459 188.106 203.412 187.62 203.412C186.965 203.412 186.33 203.51 185.713 203.706C185.096 203.903 184.488 204.188 183.89 204.562C183.871 204.767 183.857 204.968 183.848 205.165C183.839 205.352 183.834 205.59 183.834 205.88C183.834 207.328 183.974 208.497 184.255 209.385C184.544 210.273 184.9 210.946 185.32 211.404C185.722 211.843 186.133 212.152 186.554 212.329C186.984 212.507 187.447 212.596 187.942 212.596C189.064 212.596 189.97 212.194 190.662 211.39C191.363 210.586 191.714 209.385 191.714 207.786ZM209.674 207.801C209.674 208.81 209.511 209.745 209.183 210.605C208.866 211.465 208.417 212.208 207.837 212.834C207.249 213.47 206.515 213.97 205.636 214.334C204.767 214.699 203.79 214.881 202.706 214.881C201.706 214.881 200.72 214.769 199.748 214.544C198.785 214.329 197.948 214.044 197.238 213.689V210.731H197.434C197.649 210.89 197.958 211.072 198.359 211.278C198.761 211.474 199.205 211.661 199.691 211.838C200.243 212.035 200.748 212.189 201.206 212.301C201.664 212.404 202.178 212.455 202.748 212.455C203.309 212.455 203.856 212.357 204.388 212.161C204.921 211.955 205.379 211.628 205.762 211.179C206.108 210.768 206.37 210.287 206.548 209.735C206.734 209.184 206.828 208.534 206.828 207.786C206.828 207.048 206.725 206.44 206.519 205.964C206.323 205.487 206.033 205.095 205.65 204.786C205.248 204.431 204.753 204.183 204.164 204.043C203.585 203.893 202.935 203.819 202.215 203.819C201.458 203.819 200.696 203.879 199.93 204.001C199.163 204.113 198.551 204.221 198.093 204.323V193.57H209.548V196.023H200.799V201.575C201.136 201.538 201.467 201.51 201.795 201.491C202.122 201.473 202.421 201.463 202.692 201.463C203.757 201.463 204.659 201.552 205.398 201.73C206.136 201.907 206.847 202.253 207.529 202.767C208.221 203.291 208.749 203.945 209.113 204.73C209.487 205.515 209.674 206.539 209.674 207.801Z" fill="#0089FF"/>
</svg>
