<svg width="4" height="14" viewBox="0 0 4 14" fill="none" xmlns="http://www.w3.org/2000/svg">
<path fill-rule="evenodd" clip-rule="evenodd" d="M1.99995 2.8002C2.69995 2.8002 3.29995 2.20019 3.29995 1.50019C3.29995 0.800195 2.69995 0.200195 1.99995 0.200195C1.29995 0.200195 0.699951 0.800195 0.699951 1.50019C0.699951 2.20019 1.29995 2.8002 1.99995 2.8002Z" fill="#606580"/>
<path fill-rule="evenodd" clip-rule="evenodd" d="M1.99995 8.3002C2.69995 8.3002 3.29995 7.70019 3.29995 7.00019C3.29995 6.30019 2.69995 5.7002 1.99995 5.7002C1.29995 5.7002 0.699951 6.30019 0.699951 7.00019C0.699951 7.70019 1.29995 8.3002 1.99995 8.3002Z" fill="#606580"/>
<path fill-rule="evenodd" clip-rule="evenodd" d="M1.99995 13.8002C2.69995 13.8002 3.29995 13.2002 3.29995 12.5002C3.29995 11.8002 2.69995 11.2002 1.99995 11.2002C1.29995 11.2002 0.699951 11.8002 0.699951 12.5002C0.699951 13.2002 1.29995 13.8002 1.99995 13.8002Z" fill="#606580"/>
</svg>
