<svg width="126" height="60" viewBox="0 0 126 60" fill="none" xmlns="http://www.w3.org/2000/svg">
<path fill-rule="evenodd" clip-rule="evenodd" d="M102.935 36.4833C102.442 36.4833 102.04 36.1126 102.04 35.6523L102.045 35.6195V21.5889V21.5268L102.049 21.4682C102.095 21.0544 102.471 20.7286 102.93 20.7286C103.39 20.7286 103.771 21.0544 103.816 21.4682L103.821 21.5268V21.5889V35.6195L103.824 35.6523C103.824 36.1126 103.424 36.4833 102.935 36.4833ZM104.599 18.1375H101.268C98.4505 18.1375 98.2815 20.4115 98.2815 21.877V35.33C98.2815 36.7972 98.4505 39.0713 101.268 39.0713H104.599C107.416 39.0713 107.588 36.7972 107.588 35.33V21.877C107.588 20.4115 107.416 18.1375 104.599 18.1375Z" fill="white"/>
<path d="M41.8867 18.1375H49.5625V20.7372H45.9091V39.072H41.8867V18.1375Z" fill="white"/>
<path fill-rule="evenodd" clip-rule="evenodd" d="M50.1572 39.0713H54.0899L54.4674 33.5059H56.3657L56.7381 39.0713H60.6776L58.5759 18.1375H52.2572L50.1572 39.0713ZM54.6106 31.2058L55.3037 20.732H55.5278L56.2192 31.2058H54.6106Z" fill="white"/>
<path d="M66.4376 31.7422V35.6817C66.4376 36.2196 66.8341 36.3714 67.0669 36.3714C67.4393 36.3714 67.6979 36.0421 67.6979 35.6817V30.8129C67.6979 30.1595 67.5858 29.4423 66.0842 29.4423H64.4549V27.1389H66.1428C67.2927 27.1389 67.6979 26.8648 67.6979 25.5855V21.4218C67.6979 21.0632 67.4393 20.7374 67.0669 20.7374C66.8341 20.7374 66.4376 20.8839 66.4376 21.4218V24.8355H62.4119V21.8787C62.4119 20.4115 62.586 18.1392 65.3997 18.1392H68.7341C71.5512 18.1392 71.7219 20.4115 71.7219 21.8787V25.2286C71.7219 27.4975 70.1978 28.1216 68.991 28.063V28.2751C71.6892 28.2113 71.7219 30.3681 71.7219 31.1181V35.33C71.7219 36.7972 71.5512 39.0713 68.7341 39.0713H65.3997C62.586 39.0713 62.4119 36.7972 62.4119 35.33V31.7422H66.4376Z" fill="white"/>
<path d="M74.3701 18.1375H83.6809V39.072H79.9263V20.7372H78.1202V39.072H74.3701V18.1375Z" fill="white"/>
<path fill-rule="evenodd" clip-rule="evenodd" d="M86.594 39.0713H90.6163V31.9543H92.9145C95.7299 31.9543 96.1816 29.6836 96.1816 28.213V21.8787C96.1816 20.4115 95.7299 18.1392 92.9145 18.1392H86.594V39.0713ZM90.6163 29.6475V20.7374H91.6714C92.1076 20.7374 92.4248 21.1271 92.4248 21.7788V28.6027C92.4248 29.2613 92.1076 29.6475 91.6714 29.6475H90.6163Z" fill="white"/>
<path d="M120.426 18.1375H125.66V39.072H121.634V25.9433H121.491L119.417 39.072H116.204L114.134 25.9433H113.993V39.072H109.967V18.1375H115.192L117.804 32.8489L120.426 18.1375Z" fill="white"/>
<path fill-rule="evenodd" clip-rule="evenodd" d="M33.3074 20.265C33.2609 22.3874 33.0057 24.627 32.6833 25.9631C32.7988 23.6615 32.5195 20.4047 31.9885 17.8634C31.4592 15.3221 29.9523 11.0843 28.7541 9.11708C27.6507 10.9843 26.2818 14.6531 25.5663 17.8444C24.849 21.0288 24.8284 24.8856 24.8284 26.0424C24.6353 25.058 24.1594 21.5891 24.2956 18.0978C24.4094 15.2134 25.0818 12.2566 25.4508 10.8912C26.8593 6.34648 28.4576 3.43967 28.7541 2.97589C29.0541 3.43967 31.0644 7.01887 32.1057 10.7774C33.1436 14.5411 33.3488 18.1427 33.3074 20.265ZM28.78 36.5092C28.1558 35.3351 27.1817 33.0973 27.0903 29.6388C27.0645 26.2923 28.4075 23.4252 28.7989 22.8252C29.1506 23.4252 30.3006 25.9216 30.4368 29.337C30.5351 32.6783 29.4265 35.3093 28.78 36.5092ZM33.6746 10.8255C32.404 5.26363 29.2144 0.737909 28.7799 0C28.0834 1.03962 25.5421 5.03088 24.2525 9.46178C22.8405 14.403 22.6336 18.7856 23.1181 23.1062C23.6042 27.4199 25.43 31.8525 25.43 31.8525C26.4007 34.1783 27.8541 36.6696 28.7989 37.8937C30.1834 36.092 33.3764 30.7232 34.366 23.7062C34.9194 19.8028 34.9401 16.3874 33.6746 10.8255Z" fill="white"/>
<path d="M20.9769 39.0676V45.6484C20.9856 45.6381 20.9959 45.6312 21.008 45.6208C23.3062 43.3313 27.0406 43.3313 29.3422 45.6208C31.6456 47.9087 31.6456 51.6327 29.3422 53.9223L29.3146 53.9499V53.9516C29.2991 53.962 29.2905 53.9723 29.2819 53.9827C26.9802 56.2498 23.9786 57.3895 20.9769 57.3895C17.9701 57.3895 14.9495 56.2395 12.6513 53.9568C8.60146 49.919 8.11699 43.6778 11.2083 39.1176C11.6238 38.5038 12.1031 37.9194 12.6513 37.3763C14.9495 35.085 17.9701 33.9453 20.9769 33.9453V18.2493C9.39971 18.2493 0 27.5955 0 39.1176C0 50.6535 9.39971 59.9997 20.9769 59.9997C27.0233 59.9997 32.4611 57.4515 36.2868 53.3896V39.0676H20.9769Z" fill="white"/>
<path fill-rule="evenodd" clip-rule="evenodd" d="M121.9 55.0553C121.9 57.0432 120.995 57.3983 118.686 57.3983H116.564V48.3072H118.686V51.8158H119.043C121.129 51.8158 121.9 52.3037 121.9 54.1209V55.0553ZM104.181 50.0263H102.573V57.4053H100.552V50.0263H98.8281V48.3022H104.181V50.0263ZM87.8422 54.1571C87.8422 56.0001 86.9026 56.4984 84.813 56.4984V57.3983H82.7475V56.4984C80.651 56.4984 79.7011 56.0001 79.7011 54.1571V51.3175C79.7011 49.4624 80.6131 48.99 82.7475 48.99V48.3072H84.813V48.99C86.9353 48.99 87.8422 49.4624 87.8422 51.3175V54.1571ZM68.5928 50.0263H65.6877V51.8159H68.2876V53.5382H65.6877V55.6795H68.5928V57.4053H63.4981V48.3022H68.5928V50.0263ZM50.983 57.3983H48.8572V53.4209H47.7676V57.3983H45.6418V48.3072H47.7676V51.8158H48.8572V48.3072H50.983V57.3983ZM125.66 46.0435H41.8867V59.9999H125.66V46.0435ZM81.7648 51.2605V54.1708C81.7648 54.7035 81.9355 54.8242 82.4045 54.8242H82.7476V50.5899H82.4045C81.9355 50.5899 81.7648 50.7261 81.7648 51.2605ZM119.159 53.421H118.686V55.7933H119.159C119.636 55.7933 119.777 55.6692 119.777 55.1537V54.0589C119.777 53.5382 119.636 53.421 119.159 53.421ZM85.1389 50.5899H84.813V54.8242H85.1389C85.613 54.8242 85.7837 54.6915 85.7837 54.157V51.233C85.7837 50.6985 85.613 50.5899 85.1389 50.5899Z" fill="white"/>
</svg>
