<svg width="16" height="16" viewBox="0 0 16 16" fill="none" xmlns="http://www.w3.org/2000/svg">
<path d="M0.5 3.2H9.5C9.7 4.2 10.6 4.9 11.6 4.9C12.6 4.9 13.5 4.2 13.7 3.2H15.4C15.7 3.2 15.9 3 15.9 2.7C15.9 2.4 15.7 2.2 15.4 2.2H13.7C13.5 1.2 12.6 0.5 11.6 0.5C10.6 0.5 9.7 1.2 9.5 2.2H0.5C0.2 2.2 0 2.4 0 2.7C0 3 0.3 3.2 0.5 3.2ZM11.7 1.5C12.4 1.5 12.9 2 12.9 2.7C12.9 3.4 12.4 3.9 11.7 3.9C11 3.9 10.5 3.4 10.5 2.7C10.5 2 11 1.5 11.7 1.5Z" fill="#606580"/>
<path d="M15.5001 12.8001H11.9001C11.7001 11.8001 10.8001 11.1001 9.8001 11.1001C8.8001 11.1001 7.9001 11.8001 7.7001 12.8001H0.600098C0.300098 12.8001 0.100098 13.0001 0.100098 13.3001C0.100098 13.6001 0.300098 13.8001 0.600098 13.8001H7.7001C7.9001 14.8001 8.8001 15.5001 9.8001 15.5001C10.8001 15.5001 11.7001 14.8001 11.9001 13.8001H15.5001C15.8001 13.8001 16.0001 13.6001 16.0001 13.3001C16.0001 13.0001 15.8001 12.8001 15.5001 12.8001ZM9.8001 14.4001C9.1001 14.4001 8.6001 13.9001 8.6001 13.2001C8.6001 12.5001 9.1001 12.0001 9.8001 12.0001C10.5001 12.0001 11.0001 12.5001 11.0001 13.2001C11.0001 13.9001 10.4001 14.4001 9.8001 14.4001Z" fill="#606580"/>
<path d="M15.5 7.4998H6.5C6.3 6.4998 5.4 5.7998 4.4 5.7998C3.4 5.7998 2.5 6.4998 2.3 7.4998H0.5C0.2 7.4998 0 7.6998 0 7.9998C0 8.2998 0.2 8.4998 0.5 8.4998H2.3C2.5 9.4998 3.4 10.1998 4.4 10.1998C5.4 10.1998 6.3 9.4998 6.5 8.4998H15.5C15.8 8.4998 16 8.2998 16 7.9998C16 7.6998 15.8 7.4998 15.5 7.4998ZM4.5 9.0998C3.8 9.0998 3.3 8.5998 3.3 7.8998C3.3 7.1998 3.8 6.6998 4.5 6.6998C5.2 6.6998 5.7 7.1998 5.7 7.8998C5.7 8.5998 5.1 9.0998 4.5 9.0998Z" fill="#606580"/>
</svg>
